<svg width="35" height="36" viewBox="0 0 35 36" fill="none" xmlns="http://www.w3.org/2000/svg">
<path d="M35 18C35 27.9411 27.165 36 17.5 36C7.83502 36 0 27.9411 0 18C0 8.05887 7.83502 0 17.5 0C27.165 0 35 8.05887 35 18Z" fill="#C9C9C9"/>
<path d="M8 11.5C8 9.567 9.567 8 11.5 8C13.433 8 15 9.567 15 11.5C15 13.433 13.433 15 11.5 15C9.567 15 8 13.433 8 11.5Z" fill="#F9EDE7"/>
<path d="M8 24.5C8 22.567 9.567 21 11.5 21C13.433 21 15 22.567 15 24.5C15 26.433 13.433 28 11.5 28C9.567 28 8 26.433 8 24.5Z" fill="#F9EDE7"/>
<path d="M21 24.5C21 22.567 22.567 21 24.5 21C26.433 21 28 22.567 28 24.5C28 26.433 26.433 28 24.5 28C22.567 28 21 26.433 21 24.5Z" fill="#F9EDE7"/>
<path d="M21 11.5C21 9.567 22.567 8 24.5 8C26.433 8 28 9.567 28 11.5C28 13.433 26.433 15 24.5 15C22.567 15 21 13.433 21 11.5Z" fill="#F9EDE7"/>
</svg>
