<svg width="35" height="32" viewBox="0 0 35 32" fill="none" xmlns="http://www.w3.org/2000/svg">
<path d="M31.0629 15.1484C31.3912 15.1815 31.7275 15.1788 32.0671 15.137C32.1303 15.1292 32.1936 15.1201 32.257 15.1095C32.478 15.0729 32.7 15.0194 32.9219 14.9482C32.9929 14.9254 33.0631 14.901 33.1324 14.8749C33.2539 15.0684 33.3242 15.2973 33.3242 15.5426C33.3242 16.1724 32.8612 16.6939 32.257 16.7855C32.2257 16.7903 32.1941 16.7939 32.1621 16.7962C32.13 16.7939 32.0984 16.7903 32.0671 16.7855C31.4629 16.6939 30.9999 16.1724 30.9999 15.5426C30.9999 15.4049 31.022 15.2724 31.0629 15.1484Z" stroke="black" stroke-width="8"/>
</svg>
